<svg version="1.1" id="Layer_1" xmlns="http://www.w3.org/2000/svg" xmlns:xlink="http://www.w3.org/1999/xlink" x="0px" y="0px"
	 width="100%" viewBox="0 0 1024 1024" enable-background="new 0 0 1024 1024" xml:space="preserve">
<path fill="#000000" opacity="1.000000" stroke="none" 
	d="
M662.096558,658.710693 
	C648.873108,619.209045 633.724731,580.815796 620.218445,541.834900 
	C616.353516,530.680176 612.646790,519.470642 608.845215,508.293884 
	C608.106812,506.122833 607.691284,503.754211 605.379822,502.085876 
	C602.326233,504.753235 601.828247,508.716400 600.532410,512.108398 
	C574.401123,580.509094 548.369080,648.947754 522.423584,717.419189 
	C521.117920,720.864990 519.495178,722.535217 515.603943,722.397583 
	C507.947113,722.126770 500.269501,722.149963 492.610138,722.377075 
	C489.048279,722.482666 487.273407,721.267395 486.054718,717.857666 
	C471.664825,677.596375 457.121246,637.389954 442.651917,597.156982 
	C439.869873,589.421204 439.937317,589.382385 431.812561,589.381470 
	C371.815979,589.374878 311.819244,589.431763 251.823090,589.266663 
	C246.880875,589.253113 244.618866,590.700012 242.896973,595.486694 
	C228.140045,636.510193 213.058029,677.416809 198.107712,718.370850 
	C197.241241,720.744385 196.226334,722.380615 193.241531,722.368408 
	C170.576569,722.275879 147.911102,722.311951 125.245796,722.290710 
	C124.268929,722.289795 123.230301,722.316589 122.415260,721.332764 
	C121.943352,718.981323 123.188087,716.879822 123.978264,714.758118 
	C144.305038,660.179077 164.676407,605.616577 185.054764,551.056763 
	C207.353531,491.355316 229.669464,431.660278 251.973297,371.960754 
	C266.532410,332.991119 281.115936,294.030579 295.576294,255.024323 
	C296.747681,251.864502 298.367767,250.671234 301.757904,250.685196 
	C330.255768,250.802597 358.755280,250.876846 387.251678,250.643463 
	C391.886780,250.605515 393.166656,252.954086 394.470306,256.483826 
	C410.609131,300.181641 426.803558,343.859009 443.029083,387.524780 
	C463.890991,443.668060 484.792816,499.796478 505.685913,555.928162 
	C506.264587,557.482788 506.890167,559.031433 508.299438,560.224182 
	C510.011200,559.083618 510.790680,557.276733 511.480164,555.468323 
	C530.452271,505.706146 549.393921,455.932373 568.399902,406.183197 
	C569.168457,404.171356 569.142944,402.452759 568.452576,400.442261 
	C554.030701,358.445557 539.632812,316.440521 525.327759,274.403900 
	C522.828003,267.058044 519.944458,259.788300 518.866089,252.138611 
	C520.695374,250.177200 522.806580,250.794525 524.705688,250.790482 
	C545.537659,250.746140 566.372314,250.929184 587.200134,250.629242 
	C592.015625,250.559891 593.875000,252.453964 595.315247,256.626068 
	C614.960632,313.535400 634.674988,370.421112 654.495056,427.269897 
	C675.851196,488.524658 697.330200,549.736633 718.798462,610.952271 
	C719.366882,612.573242 719.326599,614.708740 721.543274,615.418152 
	C723.613586,614.698792 723.914490,612.702454 724.452271,611.046265 
	C749.929443,532.594727 775.355835,454.126678 800.806030,375.666321 
	C813.684631,335.963135 826.666626,296.293182 839.397705,256.542816 
	C840.806458,252.144119 842.745605,250.584091 847.457642,250.641357 
	C869.286438,250.906525 891.120300,250.743362 912.952393,250.773331 
	C914.898254,250.776001 916.958557,250.281418 919.175964,251.873093 
	C918.153381,258.416870 915.557007,264.718750 913.598083,271.163025 
	C898.550720,320.665070 881.403259,369.475159 864.886536,418.492798 
	C847.038940,471.460510 829.283813,524.459900 811.243469,577.361938 
	C795.294067,624.132385 778.977173,670.777405 762.932617,717.515564 
	C761.715088,721.062317 759.961792,722.432495 756.122314,722.403320 
	C733.791504,722.233398 711.458313,722.242554 689.127197,722.385681 
	C685.393982,722.409607 683.536682,721.302246 682.305359,717.610779 
	C675.779602,698.045593 668.965454,678.576660 662.096558,658.710693 
M414.364349,517.693848 
	C411.655243,510.538452 408.879028,503.407593 406.247986,496.223602 
	C390.285706,452.639099 374.356079,409.042603 358.416595,365.449768 
	C354.187805,353.884430 349.959534,342.318939 345.739532,330.750397 
	C345.168030,329.183746 344.778564,327.351624 342.665039,327.337708 
	C340.570160,327.323883 340.127869,329.193726 339.444214,330.686798 
	C339.097900,331.443085 338.775848,332.212982 338.489136,332.993744 
	C317.609100,389.854004 296.731201,446.715118 275.861664,503.579224 
	C273.647827,509.611267 271.485260,515.662109 269.294952,521.715088 
	C271.791779,523.407593 274.003906,522.990173 276.102631,522.986267 
	C320.265350,522.903564 364.428009,522.795349 408.590698,522.689209 
	C409.590210,522.686829 410.595032,522.574524 411.588196,522.644226 
	C415.025696,522.885620 415.607178,521.211670 414.364349,517.693848 
z"/>
</svg>